<mxfile host="app.diagrams.net" agent="Mozilla/5.0 (Windows NT 10.0; Win64; x64) AppleWebKit/537.36 (KHTML, like Gecko) Chrome/130.0.0.0 Safari/537.36" version="24.8.6">
  <diagram name="Page-1" id="o3_C_1hhxJtid-yfffNp">
    <mxGraphModel dx="1050" dy="1622" grid="1" gridSize="10" guides="1" tooltips="1" connect="1" arrows="1" fold="1" page="1" pageScale="1" pageWidth="850" pageHeight="1100" math="0" shadow="0">
      <root>
        <mxCell id="0" />
        <mxCell id="1" parent="0" />
        <mxCell id="et0vl3U3U965Es_6xjwo-2" value="Inisialisasi Serial" style="whiteSpace=wrap;strokeWidth=2;" vertex="1" parent="1">
          <mxGeometry x="379" y="118" width="178" height="48" as="geometry" />
        </mxCell>
        <mxCell id="et0vl3U3U965Es_6xjwo-3" value="Inisialisasi Pin LED D8" style="whiteSpace=wrap;strokeWidth=2;" vertex="1" parent="1">
          <mxGeometry x="361" y="217" width="213" height="48" as="geometry" />
        </mxCell>
        <mxCell id="et0vl3U3U965Es_6xjwo-4" value="Hubungkan ke WiFi" style="whiteSpace=wrap;strokeWidth=2;" vertex="1" parent="1">
          <mxGeometry x="370" y="315" width="196" height="48" as="geometry" />
        </mxCell>
        <mxCell id="et0vl3U3U965Es_6xjwo-5" value="WiFi Terhubung?" style="rhombus;strokeWidth=2;whiteSpace=wrap;" vertex="1" parent="1">
          <mxGeometry x="385" y="436" width="165" height="165" as="geometry" />
        </mxCell>
        <mxCell id="et0vl3U3U965Es_6xjwo-6" value="Cetak Alamat IP ESP" style="whiteSpace=wrap;strokeWidth=2;" vertex="1" parent="1">
          <mxGeometry x="366" y="674" width="204" height="48" as="geometry" />
        </mxCell>
        <mxCell id="et0vl3U3U965Es_6xjwo-7" value="Inisialisasi HTTP Server" style="whiteSpace=wrap;strokeWidth=2;" vertex="1" parent="1">
          <mxGeometry x="355" y="772" width="226" height="48" as="geometry" />
        </mxCell>
        <mxCell id="et0vl3U3U965Es_6xjwo-8" value="Inisialisasi WebSocket pada Port 81" style="whiteSpace=wrap;strokeWidth=2;" vertex="1" parent="1">
          <mxGeometry x="341" y="870" width="255" height="66" as="geometry" />
        </mxCell>
        <mxCell id="et0vl3U3U965Es_6xjwo-9" value="Mulai Looping Utama" style="whiteSpace=wrap;strokeWidth=2;" vertex="1" parent="1">
          <mxGeometry x="363" y="986" width="211" height="48" as="geometry" />
        </mxCell>
        <mxCell id="et0vl3U3U965Es_6xjwo-10" value="Proses HTTP Request" style="whiteSpace=wrap;strokeWidth=2;" vertex="1" parent="1">
          <mxGeometry x="20" y="1085" width="209" height="48" as="geometry" />
        </mxCell>
        <mxCell id="et0vl3U3U965Es_6xjwo-11" value="Proses WebSocket Message" style="whiteSpace=wrap;strokeWidth=2;" vertex="1" parent="1">
          <mxGeometry x="343" y="1085" width="250" height="48" as="geometry" />
        </mxCell>
        <mxCell id="et0vl3U3U965Es_6xjwo-12" value="Request Halaman Utama?" style="rhombus;strokeWidth=2;whiteSpace=wrap;" vertex="1" parent="1">
          <mxGeometry x="90" y="1190" width="230" height="230" as="geometry" />
        </mxCell>
        <mxCell id="et0vl3U3U965Es_6xjwo-13" value="Tampilkan Halaman Kontrol LED" style="whiteSpace=wrap;strokeWidth=2;" vertex="1" parent="1">
          <mxGeometry x="76" y="1500" width="257" height="66" as="geometry" />
        </mxCell>
        <mxCell id="et0vl3U3U965Es_6xjwo-14" value="Pesan WebSocket Diterima?" style="rhombus;strokeWidth=2;whiteSpace=wrap;" vertex="1" parent="1">
          <mxGeometry x="437" y="1183" width="245" height="245" as="geometry" />
        </mxCell>
        <mxCell id="et0vl3U3U965Es_6xjwo-15" value="Parse Nilai PWM dari Klien" style="whiteSpace=wrap;strokeWidth=2;" vertex="1" parent="1">
          <mxGeometry x="435" y="1509" width="248" height="48" as="geometry" />
        </mxCell>
        <mxCell id="et0vl3U3U965Es_6xjwo-16" value="Set Kecerahan LED dengan PWM" style="whiteSpace=wrap;strokeWidth=2;" vertex="1" parent="1">
          <mxGeometry x="514" y="1616" width="250" height="66" as="geometry" />
        </mxCell>
        <mxCell id="et0vl3U3U965Es_6xjwo-17" value="" style="curved=1;startArrow=none;endArrow=block;exitX=0.49;exitY=1.01;entryX=0.5;entryY=0.01;rounded=0;" edge="1" parent="1" target="et0vl3U3U965Es_6xjwo-2">
          <mxGeometry relative="1" as="geometry">
            <Array as="points" />
            <mxPoint x="467.52941176470586" y="68" as="sourcePoint" />
          </mxGeometry>
        </mxCell>
        <mxCell id="et0vl3U3U965Es_6xjwo-18" value="" style="curved=1;startArrow=none;endArrow=block;exitX=0.5;exitY=1.02;entryX=0.5;entryY=0;rounded=0;" edge="1" parent="1" source="et0vl3U3U965Es_6xjwo-2" target="et0vl3U3U965Es_6xjwo-3">
          <mxGeometry relative="1" as="geometry">
            <Array as="points" />
          </mxGeometry>
        </mxCell>
        <mxCell id="et0vl3U3U965Es_6xjwo-19" value="" style="curved=1;startArrow=none;endArrow=block;exitX=0.5;exitY=1;entryX=0.5;entryY=0;rounded=0;" edge="1" parent="1" source="et0vl3U3U965Es_6xjwo-3" target="et0vl3U3U965Es_6xjwo-4">
          <mxGeometry relative="1" as="geometry">
            <Array as="points" />
          </mxGeometry>
        </mxCell>
        <mxCell id="et0vl3U3U965Es_6xjwo-20" value="" style="curved=1;startArrow=none;endArrow=block;exitX=0.46;exitY=1.01;entryX=0.41;entryY=0;rounded=0;" edge="1" parent="1" source="et0vl3U3U965Es_6xjwo-4" target="et0vl3U3U965Es_6xjwo-5">
          <mxGeometry relative="1" as="geometry">
            <Array as="points">
              <mxPoint x="447" y="400" />
            </Array>
          </mxGeometry>
        </mxCell>
        <mxCell id="et0vl3U3U965Es_6xjwo-21" value="Tidak" style="curved=1;startArrow=none;endArrow=block;exitX=0.59;exitY=0;entryX=0.54;entryY=1.01;rounded=0;" edge="1" parent="1" source="et0vl3U3U965Es_6xjwo-5" target="et0vl3U3U965Es_6xjwo-4">
          <mxGeometry relative="1" as="geometry">
            <Array as="points">
              <mxPoint x="489" y="400" />
            </Array>
          </mxGeometry>
        </mxCell>
        <mxCell id="et0vl3U3U965Es_6xjwo-22" value="Ya" style="curved=1;startArrow=none;endArrow=block;exitX=0.5;exitY=1;entryX=0.5;entryY=-0.01;rounded=0;" edge="1" parent="1" source="et0vl3U3U965Es_6xjwo-5" target="et0vl3U3U965Es_6xjwo-6">
          <mxGeometry relative="1" as="geometry">
            <Array as="points" />
          </mxGeometry>
        </mxCell>
        <mxCell id="et0vl3U3U965Es_6xjwo-23" value="" style="curved=1;startArrow=none;endArrow=block;exitX=0.5;exitY=1;entryX=0.5;entryY=0;rounded=0;" edge="1" parent="1" source="et0vl3U3U965Es_6xjwo-6" target="et0vl3U3U965Es_6xjwo-7">
          <mxGeometry relative="1" as="geometry">
            <Array as="points" />
          </mxGeometry>
        </mxCell>
        <mxCell id="et0vl3U3U965Es_6xjwo-24" value="" style="curved=1;startArrow=none;endArrow=block;exitX=0.5;exitY=1.01;entryX=0.5;entryY=0.01;rounded=0;" edge="1" parent="1" source="et0vl3U3U965Es_6xjwo-7" target="et0vl3U3U965Es_6xjwo-8">
          <mxGeometry relative="1" as="geometry">
            <Array as="points" />
          </mxGeometry>
        </mxCell>
        <mxCell id="et0vl3U3U965Es_6xjwo-25" value="" style="curved=1;startArrow=none;endArrow=block;exitX=0.5;exitY=1.01;entryX=0.5;entryY=0.01;rounded=0;" edge="1" parent="1" source="et0vl3U3U965Es_6xjwo-8" target="et0vl3U3U965Es_6xjwo-9">
          <mxGeometry relative="1" as="geometry">
            <Array as="points" />
          </mxGeometry>
        </mxCell>
        <mxCell id="et0vl3U3U965Es_6xjwo-26" value="" style="curved=1;startArrow=none;endArrow=block;exitX=0;exitY=0.83;entryX=0.5;entryY=0;rounded=0;" edge="1" parent="1" source="et0vl3U3U965Es_6xjwo-9" target="et0vl3U3U965Es_6xjwo-10">
          <mxGeometry relative="1" as="geometry">
            <Array as="points">
              <mxPoint x="124" y="1060" />
            </Array>
          </mxGeometry>
        </mxCell>
        <mxCell id="et0vl3U3U965Es_6xjwo-27" value="" style="curved=1;startArrow=none;endArrow=block;exitX=0.5;exitY=1.02;entryX=0.5;entryY=0;rounded=0;" edge="1" parent="1" source="et0vl3U3U965Es_6xjwo-9" target="et0vl3U3U965Es_6xjwo-11">
          <mxGeometry relative="1" as="geometry">
            <Array as="points" />
          </mxGeometry>
        </mxCell>
        <mxCell id="et0vl3U3U965Es_6xjwo-28" value="" style="curved=1;startArrow=none;endArrow=block;exitX=0.5;exitY=1;entryX=0.23;entryY=0;rounded=0;" edge="1" parent="1" source="et0vl3U3U965Es_6xjwo-10" target="et0vl3U3U965Es_6xjwo-12">
          <mxGeometry relative="1" as="geometry">
            <Array as="points">
              <mxPoint x="124" y="1158" />
            </Array>
          </mxGeometry>
        </mxCell>
        <mxCell id="et0vl3U3U965Es_6xjwo-29" value="Ya" style="curved=1;startArrow=none;endArrow=block;exitX=0.5;exitY=1;entryX=0.5;entryY=0.01;rounded=0;" edge="1" parent="1" source="et0vl3U3U965Es_6xjwo-12" target="et0vl3U3U965Es_6xjwo-13">
          <mxGeometry relative="1" as="geometry">
            <Array as="points" />
          </mxGeometry>
        </mxCell>
        <mxCell id="et0vl3U3U965Es_6xjwo-30" value="Tidak" style="curved=1;startArrow=none;endArrow=block;exitX=0.77;exitY=0;entryX=0.07;entryY=1.02;rounded=0;" edge="1" parent="1" source="et0vl3U3U965Es_6xjwo-12" target="et0vl3U3U965Es_6xjwo-9">
          <mxGeometry relative="1" as="geometry">
            <Array as="points">
              <mxPoint x="286" y="1158" />
              <mxPoint x="286" y="1060" />
            </Array>
          </mxGeometry>
        </mxCell>
        <mxCell id="et0vl3U3U965Es_6xjwo-31" value="" style="curved=1;startArrow=none;endArrow=block;exitX=0.5;exitY=1;entryX=0.19;entryY=0;rounded=0;" edge="1" parent="1" source="et0vl3U3U965Es_6xjwo-11" target="et0vl3U3U965Es_6xjwo-14">
          <mxGeometry relative="1" as="geometry">
            <Array as="points">
              <mxPoint x="468" y="1158" />
            </Array>
          </mxGeometry>
        </mxCell>
        <mxCell id="et0vl3U3U965Es_6xjwo-32" value="Ya" style="curved=1;startArrow=none;endArrow=block;exitX=0.5;exitY=1;entryX=0.5;entryY=0;rounded=0;" edge="1" parent="1" source="et0vl3U3U965Es_6xjwo-14" target="et0vl3U3U965Es_6xjwo-15">
          <mxGeometry relative="1" as="geometry">
            <Array as="points" />
          </mxGeometry>
        </mxCell>
        <mxCell id="et0vl3U3U965Es_6xjwo-33" value="" style="curved=1;startArrow=none;endArrow=block;exitX=0.5;exitY=1.01;entryX=0.32;entryY=0.01;rounded=0;" edge="1" parent="1" source="et0vl3U3U965Es_6xjwo-15" target="et0vl3U3U965Es_6xjwo-16">
          <mxGeometry relative="1" as="geometry">
            <Array as="points">
              <mxPoint x="559" y="1591" />
            </Array>
          </mxGeometry>
        </mxCell>
        <mxCell id="et0vl3U3U965Es_6xjwo-34" value="" style="curved=1;startArrow=none;endArrow=block;exitX=0.75;exitY=0.01;entryX=1;entryY=0.89;rounded=0;" edge="1" parent="1" source="et0vl3U3U965Es_6xjwo-16" target="et0vl3U3U965Es_6xjwo-9">
          <mxGeometry relative="1" as="geometry">
            <Array as="points">
              <mxPoint x="751" y="1591" />
              <mxPoint x="751" y="1060" />
            </Array>
          </mxGeometry>
        </mxCell>
        <mxCell id="et0vl3U3U965Es_6xjwo-35" value="Tidak" style="curved=1;startArrow=none;endArrow=block;exitX=0.81;exitY=0;entryX=0.92;entryY=1.02;rounded=0;" edge="1" parent="1" source="et0vl3U3U965Es_6xjwo-14" target="et0vl3U3U965Es_6xjwo-9">
          <mxGeometry relative="1" as="geometry">
            <Array as="points">
              <mxPoint x="650" y="1158" />
              <mxPoint x="650" y="1060" />
            </Array>
          </mxGeometry>
        </mxCell>
        <mxCell id="et0vl3U3U965Es_6xjwo-36" value="Mulai" style="ellipse;whiteSpace=wrap;html=1;" vertex="1" parent="1">
          <mxGeometry x="407.5" y="-10" width="120" height="80" as="geometry" />
        </mxCell>
      </root>
    </mxGraphModel>
  </diagram>
</mxfile>
